<svg width="116.02878417968749px" height="162.79999999999998px" xmlns="http://www.w3.org/2000/svg" viewBox="191.98560791015626 -6.3999999999999915 116.02878417968749 162.79999999999998" style="background: rgba(243, 97, 0, 0);" preserveAspectRatio="xMidYMid">
<defs><linearGradient id="editing-glowing-gradient" x1="0.4651217631279373" x2="0.5348782368720627" y1="0.0012179748700879012" y2="0.9987820251299121">
<stop offset="0" stop-color="#f36100">
 <animate attributeName="stop-color" dur="10s" values="#f36100;#ffd55d;#f36100" repeatCount="indefinite"></animate>
</stop>
<stop offset="1" stop-color="#ffd55d">
 <animate attributeName="stop-color" dur="10s" values="#f36100;#ffd55d;#f36100" repeatCount="indefinite"></animate>
</stop></linearGradient>
<filter id="editing-glowing" x="-100%" y="-100%" width="300%" height="300%">
<feGaussianBlur in="SourceGraphic" result="blur" stdDeviation="9">
 <animate attributeName="stdDeviation" dur="20s" values="9;21;12;6;9" repeatCount="indefinite"></animate>
</feGaussianBlur><feMerge><feMergeNode in="blur"></feMergeNode><feMergeNode in="SourceGraphic"></feMergeNode></feMerge></filter></defs>
<g filter="url(#editing-glowing)"><g transform="translate(215.21906462311745, 104.53000068664551)"><path d="M0.33 0L0.33 0L0.33 0Q0.57-1.03 0.70-2.52L0.70-2.52L0.70-2.52Q0.82-4.02 0.82-5.62L0.82-5.62L0.82-5.62Q0.82-7.10 0.72-8.39L0.72-8.39L0.72-8.39Q0.62-9.68 0.41-10.66L0.41-10.66L0.41-10.66Q2.50-10.75 3.98-11.42L3.98-11.42L3.98-11.42Q5.46-12.10 6.40-12.92L6.40-12.92L6.40-12.92Q7.38-14.44 8.41-16.32L8.41-16.32L8.41-16.32Q9.43-18.21 10.27-20.20L10.27-20.20L10.27-20.20Q11.12-22.19 11.65-24.18L11.65-24.18L11.65-24.18Q12.18-26.17 12.18-27.89L12.18-27.89L12.18-27.89Q12.18-28.59 11.98-29.29L11.98-29.29L11.98-29.29Q11.77-29.98 11.28-30.15L11.28-30.15L11.28-30.15Q12.51-30.47 13.74-31.95L13.74-31.95L13.74-31.95Q14.97-33.43 16.12-35.60L16.12-35.60L16.12-35.60Q17.27-37.78 18.25-40.44L18.25-40.44L18.25-40.44Q19.24-43.11 19.97-45.83L19.97-45.83L19.97-45.83Q20.71-48.56 21.12-51.15L21.12-51.15L21.12-51.15Q21.53-53.73 21.53-55.74L21.53-55.74L21.53-55.74Q21.53-56.44 21.45-57.09L21.45-57.09L21.45-57.09Q21.37-57.75 21.37-58.20L21.37-58.20L21.37-58.20Q21.37-58.41 21.39-58.57L21.39-58.57L21.39-58.57Q21.41-58.73 21.41-59.06L21.41-59.06L21.41-59.06Q22.35-58.69 23.77-58.43L23.77-58.43L23.77-58.43Q25.18-58.16 26.95-57.98L26.95-57.98L26.95-57.98Q28.71-57.79 30.72-57.71L30.72-57.71L30.72-57.71Q32.73-57.63 34.90-57.63L34.90-57.63L34.90-57.63Q36.79-57.63 38.76-57.71L38.76-57.71L38.76-57.71Q40.73-57.79 42.57-57.98L42.57-57.98L42.57-57.98Q44.42-58.16 46.02-58.43L46.02-58.43L46.02-58.43Q47.62-58.69 48.69-59.06L48.69-59.06L48.69-58.90L48.69-58.53L48.69-58.53Q48.69-58.08 48.58-57.40L48.58-57.40L48.58-57.40Q48.48-56.72 48.48-55.90L48.48-55.90L48.48-55.90Q48.48-54.02 48.83-51.47L48.83-51.47L48.83-51.47Q49.18-48.93 49.79-46.20L49.79-46.20L49.79-46.20Q50.41-43.48 51.29-40.79L51.29-40.79L51.29-40.79Q52.17-38.10 53.24-35.87L53.24-35.87L53.24-35.87Q54.30-33.63 55.54-32.09L55.54-32.09L55.54-32.09Q56.77-30.56 58.12-30.15L58.12-30.15L58.12-30.15Q57.54-29.94 57.32-29.35L57.32-29.35L57.32-29.35Q57.09-28.75 57.09-27.89L57.09-27.89L57.09-27.89Q57.09-26.17 57.61-24.18L57.61-24.18L57.61-24.18Q58.12-22.19 58.96-20.20L58.96-20.20L58.96-20.20Q59.80-18.21 60.81-16.37L60.81-16.37L60.81-16.37Q61.81-14.52 62.79-13.04L62.79-13.04L62.79-13.04Q63.41-12.67 64.27-12.26L64.27-12.26L64.27-12.26Q65.13-11.85 66.08-11.48L66.08-11.48L66.08-11.48Q67.02-11.12 67.96-10.89L67.96-10.89L67.96-10.89Q68.91-10.66 69.73-10.66L69.73-10.66L69.73-10.66Q69.52-9.68 69.42-8.39L69.42-8.39L69.42-8.39Q69.32-7.10 69.32-5.62L69.32-5.62L69.32-5.62Q69.32-4.02 69.44-2.52L69.44-2.52L69.44-2.52Q69.56-1.03 69.81 0L69.81 0L69.81 0Q68.33-0.16 66.40-0.35L66.40-0.35L66.40-0.35Q64.48-0.53 62.26-0.68L62.26-0.68L62.26-0.68Q60.05-0.82 57.67-0.92L57.67-0.92L57.67-0.92Q55.29-1.03 52.91-1.03L52.91-1.03L52.91-1.03Q48.56-1.03 44.65-0.76L44.65-0.76L44.65-0.76Q40.73-0.49 38.02 0L38.02 0L38.02 0Q38.14-0.70 38.25-2.19L38.25-2.19L38.25-2.19Q38.35-3.69 38.35-5.54L38.35-5.54L38.35-5.54Q38.35-6.32 38.31-7.12L38.31-7.12L38.31-7.12Q38.27-7.92 38.23-8.61L38.23-8.61L38.23-8.61Q38.19-9.31 38.12-9.86L38.12-9.86L38.12-9.86Q38.06-10.42 38.02-10.66L38.02-10.66L38.02-10.66Q38.76-10.66 39.58-10.73L39.58-10.73L39.58-10.73Q40.40-10.79 41.20-10.95L41.20-10.95L41.20-10.95Q42-11.12 42.74-11.40L42.74-11.40L42.74-11.40Q43.48-11.69 44.05-12.18L44.05-12.18L44.05-12.18Q43.97-13.82 43.52-14.99L43.52-14.99L43.52-14.99Q43.07-16.16 41.82-16.94L41.82-16.94L41.82-16.94Q40.56-17.72 38.33-18.09L38.33-18.09L38.33-18.09Q36.09-18.46 32.48-18.46L32.48-18.46L32.48-18.46Q29.24-18.46 27.09-18.21L27.09-18.21L27.09-18.21Q24.94-17.96 23.60-17.29L23.60-17.29L23.60-17.29Q22.27-16.61 21.64-15.40L21.64-15.40L21.64-15.40Q21-14.19 20.84-12.22L20.84-12.22L20.84-12.22Q21.45-11.73 22.31-11.44L22.31-11.44L22.31-11.44Q23.17-11.16 24.10-10.97L24.10-10.97L24.10-10.97Q25.02-10.79 25.94-10.73L25.94-10.73L25.94-10.73Q26.87-10.66 27.60-10.66L27.60-10.66L27.60-10.66Q27.52-10.42 27.46-9.88L27.46-9.88L27.46-9.88Q27.40-9.35 27.36-8.63L27.36-8.63L27.36-8.63Q27.32-7.92 27.30-7.10L27.30-7.10L27.30-7.10Q27.28-6.28 27.28-5.54L27.28-5.54L27.28-5.54Q27.28-3.69 27.38-2.19L27.38-2.19L27.38-2.19Q27.48-0.70 27.60 0L27.60 0L27.60 0Q24.49-0.57 21.29-0.80L21.29-0.80L21.29-0.80Q18.09-1.03 14.77-1.03L14.77-1.03L14.77-1.03Q10.91-1.03 7.28-0.80L7.28-0.80L7.28-0.80Q3.65-0.57 0.33 0ZM26.58-30.47L26.58-30.47L26.58-30.47Q26.58-29.29 26.84-28.51L26.84-28.51L26.84-28.51Q27.11-27.73 27.79-27.28L27.79-27.28L27.79-27.28Q28.46-26.82 29.63-26.64L29.63-26.64L29.63-26.64Q30.80-26.46 32.61-26.46L32.61-26.46L32.61-26.46Q34.41-26.46 35.58-26.64L35.58-26.64L35.58-26.64Q36.75-26.82 37.43-27.28L37.43-27.28L37.43-27.28Q38.10-27.73 38.37-28.51L38.37-28.51L38.37-28.51Q38.64-29.29 38.64-30.47L38.64-30.47L38.64-30.47Q38.64-31.91 37.90-34.00L37.90-34.00L37.90-34.00Q37.16-36.09 36.18-38.39L36.18-38.39L36.18-38.39Q35.19-40.69 34.17-42.98L34.17-42.98L34.17-42.98Q33.14-45.28 32.61-47.13L32.61-47.13L32.61-47.13Q31.99-45.28 30.97-42.98L30.97-42.98L30.97-42.98Q29.94-40.69 28.98-38.39L28.98-38.39L28.98-38.39Q28.01-36.09 27.30-34.00L27.30-34.00L27.30-34.00Q26.58-31.91 26.58-30.47Z" fill="url(#editing-glowing-gradient)"></path></g></g></svg>