<svg xmlns="http://www.w3.org/2000/svg" viewBox="203.598779296875 -1.6187499999999915 92.80244140625 153.23749999999998" style="background: rgba(100, 83, 59, 0);" preserveAspectRatio="xMidYMid"><defs><linearGradient id="editing-glowing-gradient" x1="0.19216926233717074" x2="0.8078307376628293" y1="0.8940053768033609" y2="0.1059946231966391">
<stop offset="0" stop-color="#63bcc7">
 <animate attributeName="stop-color" dur="10s" values="#63bcc7;#0579c1;#3d71ff;#63bcc7" repeatCount="indefinite"></animate>
</stop>
<stop offset="1" stop-color="#0579c1">
 <animate attributeName="stop-color" dur="10s" values="#0579c1;#63bcc7;#3d71ff;#0579c1" repeatCount="indefinite"></animate>
</stop></linearGradient><filter id="editing-glowing" x="-100%" y="-100%" width="300%" height="300%"><feGaussianBlur in="SourceGraphic" result="blur" stdDeviation="12"></feGaussianBlur><feMerge><feMergeNode in="blur"></feMergeNode><feMergeNode in="SourceGraphic"></feMergeNode></feMerge></filter></defs><g filter="url(#editing-glowing)"><g transform="translate(224.5049992799759, 103.55999946594238)"><path d="M0.59-0.42L0.59-0.42L11.17-55.44L11.17-55.44Q21.08-56.28 27.47-56.28L27.47-56.28L27.47-56.28Q33.85-56.28 37.97-55.73L37.97-55.73L37.97-55.73Q42.08-55.19 44.86-53.76L44.86-53.76L44.86-53.76Q50.40-51.07 50.40-43.68L50.40-43.68L50.40-43.68Q50.40-39.40 46.70-35.78L46.70-35.78L46.70-35.78Q43.26-32.51 39.48-31.75L39.48-31.75L39.48-31.75Q43.51-31.08 46.37-28.06L46.37-28.06L46.37-28.06Q49.39-24.86 49.39-19.91L49.39-19.91L49.39-19.91Q49.39-10.33 42.25-4.75L42.25-4.75L42.25-4.75Q35.11 0.84 21.08 0.84L21.08 0.84L21.08 0.84Q11.42 0.84 0.59-0.42ZM23.44-27.05L19.24-5.29L19.24-5.29Q19.99-5.21 20.16-5.21L20.16-5.21L20.92-5.21L20.92-5.21Q27.80-5.21 30.74-9.74L30.74-9.74L30.74-9.74Q32.93-13.27 32.93-19.74L32.93-19.74L32.93-19.74Q32.93-23.18 30.70-25.03L30.70-25.03L30.70-25.03Q28.48-26.88 23.44-27.05L23.44-27.05ZM36.20-43.60L36.20-43.60L36.20-43.60Q36.20-50.57 29.48-50.57L29.48-50.57L28.73-50.57L28.73-50.57Q28.39-50.57 27.89-50.48L27.89-50.48L24.53-32.76L25.37-32.76L25.37-32.76Q36.20-33.01 36.20-43.60Z" fill="url(#editing-glowing-gradient)"></path></g></g></svg>