<svg width="94.4387451171875px" height="153.23749999999998px" xmlns="http://www.w3.org/2000/svg" viewBox="202.78062744140624 -1.6187499999999915 94.4387451171875 153.23749999999998" style="background: rgba(212, 236, 201, 0);" preserveAspectRatio="xMidYMid"><defs><linearGradient id="editing-gradow-gradient" x1="0.9755282581475768" x2="0.024471741852423234" y1="0.6545084971874738" y2="0.34549150281252616" gradientUnits="objectBoundingBox">
<stop offset="0" stop-color="#69ff06">
 <animate attributeName="stop-color" dur="10s" values="#69ff06;#75b34c;#69ff06" repeatCount="indefinite"></animate>
</stop>
<stop offset="1" stop-color="#75b34c">
 <animate attributeName="stop-color" dur="10s" values="#75b34c;#69ff06;#75b34c" repeatCount="indefinite"></animate>

</stop></linearGradient><filter id="editing-gradow-filter" x="-100%" y="-100%" width="300%" height="300%"><feFlood flood-color="#c3d582" result="flood"></feFlood><feComposite operator="in" in2="SourceAlpha" in="flood" result="shadow"></feComposite><feOffset dx="0.9" dy="-0.3" in="SourceGraphic" result="offset-1"></feOffset><feOffset dx="-0.9" dy="0.3" in="shadow" result="offset-2"></feOffset><feMerge><feMergeNode in="offset-2"></feMergeNode><feMergeNode in="offset-1"></feMergeNode></feMerge></filter></defs><g filter="url(#editing-gradow-filter)"><g transform="translate(222.5815625190735, 104.35999870300293)"><path d="M45.28-17.39L45.28-17.39L45.28-17.39Q47.46-15.79 47.46-12.39L47.46-12.39L47.46-12.39Q47.46-8.99 45.99-6.59L45.99-6.59L45.99-6.59Q44.52-4.20 41.66-2.35L41.66-2.35L41.66-2.35Q35.53 1.60 24.82 1.60L24.82 1.60L24.82 1.60Q14.11 1.60 8.27-3.99L8.27-3.99L8.27-3.99Q2.44-9.58 2.44-19.49L2.44-19.49L2.44-19.49Q2.44-33.52 9.74-44.18L9.74-44.18L9.74-44.18Q15.29-52.08 25.20-55.44L25.20-55.44L25.20-55.44Q30.32-57.12 35.36-57.12L35.36-57.12L35.36-57.12Q40.40-57.12 43.51-56.45L43.51-56.45L43.51-56.45Q46.62-55.78 48.97-54.43L48.97-54.43L48.97-54.43Q54.10-51.49 54.10-46.79L54.10-46.79L54.10-46.79Q54.10-42.50 50.06-39.31L50.06-39.31L50.06-39.31Q46.37-36.46 43.34-36.46L43.34-36.46L43.34-36.46Q40.32-36.46 39.06-36.88L39.06-36.88L39.06-36.88Q39.40-39.90 39.40-41.87L39.40-41.87L39.40-41.87Q39.40-43.85 39.31-45.28L39.31-45.28L39.31-45.28Q39.23-46.70 38.81-48.05L38.81-48.05L38.81-48.05Q37.97-51.16 35.41-51.16L35.41-51.16L35.41-51.16Q32.84-51.16 30.28-48.76L30.28-48.76L30.28-48.76Q27.72-46.37 25.54-42.34L25.54-42.34L25.54-42.34Q20.58-33.18 20.58-22.34L20.58-22.34L20.58-22.34Q20.58-17.14 23.52-14.15L23.52-14.15L23.52-14.15Q26.46-11.17 32.76-11.17L32.76-11.17L32.76-11.17Q37.46-11.17 41.92-14.28L41.92-14.28L41.92-14.28Q43.85-15.62 45.28-17.39Z" fill="url(#editing-gradow-gradient)"></path></g></g></svg>