    <svg width="199.81748046875px" height="122.02138671875px" xmlns="http://www.w3.org/2000/svg" xmlns:xlink="http://www.w3.org/1999/xlink" viewBox="150.091259765625 13.989306640625003 199.81748046875 122.02138671875" style="background: rgba(40, 19, 0, 0);" preserveAspectRatio="xMidYMid">
        <defs>
        <filter id="editing-crack" x="-100%" y="-100%" width="300%" height="300%">
        <feFlood flood-color="#e26c00" result="flood"></feFlood>
        <feComposite operator="in" in="image" in2="SourceAlpha" result="comp">
        </feComposite><feColorMatrix type="matrix" in="comp" result="color1" values="1 0 0 0 0  0 1 0 0 0  0 0 1 0 0  1 0 0 0 0"></feColorMatrix><feColorMatrix type="matrix" in="comp" result="color2" values="0 0 0 0 0  0 0 0 0 0  0 0 0 0 0  -1 -1 -1 1 0"></feColorMatrix><feMerge result="merge"><feMergeNode in="SourceGraphic"></feMergeNode><feMergeNode in="color2"></feMergeNode></feMerge><feGaussianBlur stdDeviation="4" in="SourceAlpha" result="blur"></feGaussianBlur><feSpecularLighting surfaceScale="40" specularConstant="3" specularExponent="3" lighting-color="#e26c00" in="blur" result="specular"><fePointLight x="-250" y="-50" z="300"></fePointLight></feSpecularLighting><feComposite operator="in" in="specular" in2="SourceAlpha" result="comp2"></feComposite><feComposite in="merge" in2="comp2" operator="arithmetic" k1="0" k2="1" k3="1" k4="0" result="out"></feComposite><feComposite operator="in" in="out" in2="color1" result="light"></feComposite><feMerge result="merge2"><feMergeNode in="merge"></feMergeNode><feMergeNode in="light"></feMergeNode></feMerge><feTurbulence result="turb" baseFrequency="0.009" numOctaves="10" seed="1">
            <animate attributeName="baseFrequency" dur="60s" values="0.2;0.05;0.2" repeatCount="indefinite"></animate>
        </feTurbulence><feDisplacementMap in="merge2" in2="turb" scale="6"></feDisplacementMap><feOffset dx="-2" dy="-2" result="output"></feOffset><feMerge result="merge3"><feMergeNode in="output"></feMergeNode><feMergeNode in="merge2"></feMergeNode></feMerge><feComposite operator="in" in="flood" in2="merge3" result="merge3-flood"></feComposite><feComponentTransfer result="merge3-comp"><feFuncA type="linear" slope="0.7" intercept="-0.1"></feFuncA></feComponentTransfer><feGaussianBlur in="merge3-comp" stdDeviation="3" result="blur"></feGaussianBlur><feOffset dy="3" in="blur" result="blur-offset"></feOffset><feMerge><feMergeNode in="blur-offset"></feMergeNode><feMergeNode in="merge3"></feMergeNode></feMerge></filter></defs><g filter="url(#editing-crack)"><g transform="translate(183.98499631881714, 97.42218780517578)"><path d="M27.01-20.61L39.94-21.76L39.94-21.76Q35.33-11.65 35.33 0.06L35.33 0.06L35.33 0.06Q33.60 1.28 31.07 1.28L31.07 1.28L31.07 1.28Q28.54 1.28 26.94 0.10L26.94 0.10L26.94 0.10Q25.34-1.09 25.02-2.30L25.02-2.30L25.02-2.30Q23.42-0.64 20.83 0.32L20.83 0.32L20.83 0.32Q18.24 1.28 15.49 1.28L15.49 1.28L15.49 1.28Q12.74 1.28 10.34 0.38L10.34 0.38L10.34 0.38Q7.94-0.51 6.08-2.50L6.08-2.50L6.08-2.50Q1.98-6.85 1.98-15.10L1.98-15.10L1.98-15.10Q1.98-27.90 8.83-35.58L8.83-35.58L8.83-35.58Q15.87-43.52 28.35-43.52L28.35-43.52L28.35-43.52Q36.99-43.52 40.06-39.04L40.06-39.04L40.06-39.04Q41.02-37.63 41.02-35.94L41.02-35.94L41.02-35.94Q41.02-34.24 40.29-32.80L40.29-32.80L40.29-32.80Q39.55-31.36 38.40-30.21L38.40-30.21L38.40-30.21Q35.65-27.65 32.26-27.65L32.26-27.65L32.26-27.65Q30.91-27.65 29.63-28.10L29.63-28.10L29.63-28.10Q29.89-30.02 29.89-32.26L29.89-32.26L29.89-32.26Q29.89-34.50 29.73-35.52L29.73-35.52L29.73-35.52Q29.57-36.54 29.18-37.38L29.18-37.38L29.18-37.38Q28.35-39.10 26.53-39.10L26.53-39.10L26.53-39.10Q24.70-39.10 22.69-37.15L22.69-37.15L22.69-37.15Q20.67-35.20 19.07-32L19.07-32L19.07-32Q15.55-24.83 15.55-16.19L15.55-16.19L15.55-16.19Q15.55-12.22 17.09-9.41L17.09-9.41L17.09-9.41Q18.75-6.34 21.70-6.34L21.70-6.34L21.70-6.34Q22.72-6.34 23.65-6.85L23.65-6.85L23.65-6.85Q24.58-7.36 24.96-7.74L24.96-7.74L27.01-20.61ZM44.03-15.62L44.03-15.62L44.03-15.62Q44.03-27.71 50.30-35.33L50.30-35.33L50.30-35.33Q56.96-43.58 68.54-43.58L68.54-43.58L68.54-43.58Q76.93-43.58 81.15-39.52L81.15-39.52L81.15-39.52Q85.38-35.46 85.38-26.88L85.38-26.88L85.38-26.88Q85.38-13.82 78.72-6.21L78.72-6.21L78.72-6.21Q72.13 1.28 61.06 1.28L61.06 1.28L61.06 1.28Q52.42 1.28 48.22-3.04L48.22-3.04L48.22-3.04Q44.03-7.36 44.03-15.62ZM60.86-28.86L60.86-28.86L60.86-28.86Q57.98-17.34 57.98-8.26L57.98-8.26L57.98-8.26Q57.98-6.08 58.72-4.67L58.72-4.67L58.72-4.67Q59.46-3.26 61.41-3.26L61.41-3.26L61.41-3.26Q63.36-3.26 64.58-4.19L64.58-4.19L64.58-4.19Q65.79-5.12 66.75-7.23L66.75-7.23L66.75-7.23Q68.29-10.69 69.73-18.02L69.73-18.02L69.73-18.02Q71.17-25.34 71.30-28.38L71.30-28.38L71.30-28.38Q71.42-31.42 71.42-33.73L71.42-33.73L71.42-33.73Q71.42-36.03 70.72-37.50L70.72-37.50L70.72-37.50Q70.02-38.98 68.13-38.98L68.13-38.98L68.13-38.98Q66.24-38.98 64.96-37.82L64.96-37.82L64.96-37.82Q62.59-35.65 60.86-28.86ZM130.05-26.56L130.05-26.56L130.05-26.56Q130.05 0.70 100.48 0.70L100.48 0.70L100.48 0.70Q95.74 0.70 87.94-0.45L87.94-0.45L95.10-38.27L95.10-38.27Q95.62-40.83 95.94-42.30L95.94-42.30L95.94-42.30Q105.66-43.01 109.98-43.01L109.98-43.01L109.98-43.01Q114.30-43.01 118.27-42.11L118.27-42.11L118.27-42.11Q122.24-41.22 124.86-39.23L124.86-39.23L124.86-39.23Q130.05-35.33 130.05-26.56ZM116.86-28.93L116.86-28.93L116.86-28.93Q116.86-38.46 110.02-38.46L110.02-38.46L109.38-38.46L109.38-38.46Q109.06-38.46 108.74-38.40L108.74-38.40L102.14-4.03L102.14-4.03Q102.40-3.90 102.66-3.90L102.66-3.90L103.17-3.90L103.17-3.90Q105.54-3.90 108-5.38L108-5.38L108-5.38Q110.46-6.85 112.38-9.86L112.38-9.86L112.38-9.86Q116.86-16.83 116.86-28.93Z" fill="#281300"></path></g></g>
    </svg>