<svg xmlns="http://www.w3.org/2000/svg" viewBox="205.69189453125 -1.6187499999999915 88.6162109375 153.23749999999998" style="background: rgba(70, 48, 13, 0);" preserveAspectRatio="xMidYMid">
<defs>
<linearGradient id="editing-glowing-gradient" x1="0.17197048550474647" x2="0.8280295144952535" y1="0.8773547901113861" y2="0.12264520988861394"><stop offset="0" stop-color="#e91629"></stop>
 <animate attributeName="stop-color" dur="10s" values="#e91629;#a00816;#e91629" repeatCount="indefinite"></animate>
<stop offset="1" stop-color="#a00816">
 <animate attributeName="stop-color" dur="10s" values="#e91629;#a00816;#e91629" repeatCount="indefinite"></animate>
</stop></linearGradient>
<filter id="editing-glowing" x="-100%" y="-100%" width="300%" height="300%">
<feGaussianBlur in="SourceGraphic" result="blur" stdDeviation="12">
 <animate attributeName="stdDeviation" dur="20s" values="8;14;6;14;8" repeatCount="indefinite"></animate>
</feGaussianBlur>

<feTurbulence result="turb" baseFrequency="0.0547184" numOctaves="1" seed="1">
 <animate attributeName="baseFrequency" dur="60s" values="0;.1;0" repeatCount="indefinite"></animate>
</feTurbulence>
<feDisplacementMap in="SourceGraphic" in2="turb" scale="50">
 <animate attributeName="scale" dur="30s" values="8;12;8" repeatCount="indefinite"></animate>
</feDisplacementMap>

<feMerge><feMergeNode in="blur"></feMergeNode><feMergeNode in="SourceGraphic"></feMergeNode><feMergeNode in2="turb"></feMergeNode></feMerge>

</filter>
</defs>
<g filter="url(#editing-glowing)"><g transform="translate(224.8596859574318, 104.39999961853027)"><path d="M34.19-38.81L34.19-38.81L34.19-38.81Q35.45-41.33 35.45-43.68L35.45-43.68L35.45-43.68Q35.45-46.03 35.20-47.33L35.20-47.33L35.20-47.33Q34.94-48.64 34.36-49.64L34.36-49.64L34.36-49.64Q33.10-51.83 30.58-51.83L30.58-51.83L30.58-51.83Q27.47-51.83 24.95-49.56L24.95-49.56L24.95-49.56Q22.26-47.21 22.26-43.51L22.26-43.51L22.26-43.51Q22.26-41.16 23.90-39.35L23.90-39.35L23.90-39.35Q25.54-37.55 28.06-35.87L28.06-35.87L28.06-35.87Q30.58-34.19 33.43-32.51L33.43-32.51L33.43-32.51Q36.29-30.83 38.81-28.81L38.81-28.81L38.81-28.81Q44.60-24.19 44.60-17.98L44.60-17.98L44.60-17.98Q44.60-13.78 42.38-10.21L42.38-10.21L42.38-10.21Q40.15-6.64 36.46-4.03L36.46-4.03L36.46-4.03Q28.39 1.68 17.72 1.68L17.72 1.68L17.72 1.68Q9.07 1.68 4.62-1.13L4.62-1.13L4.62-1.13Q0.17-3.95 0.17-8.23L0.17-8.23L0.17-8.23Q0.17-15.88 6.13-17.81L6.13-17.81L6.13-17.81Q7.81-18.40 10.37-18.40L10.37-18.40L10.37-18.40Q12.94-18.40 15.88-17.30L15.88-17.30L15.88-17.30Q14.53-13.86 14.53-10.75L14.53-10.75L14.53-10.75Q14.53-4.03 19.32-4.03L19.32-4.03L19.32-4.03Q22.43-4.03 24.99-6.30L24.99-6.30L24.99-6.30Q27.55-8.57 27.55-11.13L27.55-11.13L27.55-11.13Q27.55-13.69 25.91-15.54L25.91-15.54L25.91-15.54Q24.28-17.39 21.84-18.86L21.84-18.86L21.84-18.86Q19.40-20.33 16.59-21.76L16.59-21.76L16.59-21.76Q13.78-23.18 11.34-25.20L11.34-25.20L11.34-25.20Q5.63-29.82 5.63-37.21L5.63-37.21L5.63-37.21Q5.63-42 7.98-45.74L7.98-45.74L7.98-45.74Q10.33-49.48 14.11-52.00L14.11-52.00L14.11-52.00Q21.67-57.12 30.95-57.12L30.95-57.12L30.95-57.12Q40.24-57.12 44.73-54.35L44.73-54.35L44.73-54.35Q49.22-51.58 49.22-46.87L49.22-46.87L49.22-46.87Q49.22-42.76 46.03-40.15L46.03-40.15L46.03-40.15Q43.26-37.97 39.90-37.97L39.90-37.97L39.90-37.97Q36.54-37.97 34.19-38.81Z" fill="url(#editing-glowing-gradient)"></path></g></g>
</svg>